<svg id="Layer_1" data-name="Layer 1" xmlns="http://www.w3.org/2000/svg" viewBox="0 0 660.18 195.76"><defs><style>.cls-1{fill:#fff}</style></defs><path class="cls-1" d="M174.22 82.75a43.37 43.37 0 00-38 22.46 43.14 43.14 0 00-37.79-22.46 42 42 0 00-32.37 14.93v-9.51a5.27 5.27 0 00-5.22-5.42c-3.12 0-5.21 2.18-5.21 5.42l-.06 95.3a5.08 5.08 0 004.21 5.38h1.06a5.15 5.15 0 005.22-5.42v-58.61a32.48 32.48 0 0164.94 1.35v57.3a5.44 5.44 0 005.45 5.42 5.26 5.26 0 005.18-5.42v-58.65a32.4 32.4 0 0132.58-31.43c17.73 0 32.16 14.7 32.16 32.78v57.3a5.64 5.64 0 005.42 5.42 5.26 5.26 0 005.22-5.42v-57.3c-.01-23.94-19.19-43.42-42.79-43.42zM298.7 81.9c-27.55-4.11-55 13.38-63.77 40.69-8.63 26.79 5.22 57.48 31.53 69.87a54.77 54.77 0 0023.54 5.22 59.75 59.75 0 0049.32-26.28c6-8.78 9.27-19.72 9.5-31.6a2.62 2.62 0 000-.27 2.44 2.44 0 000-.27A58.9 58.9 0 00298.7 81.9zm42.59 57.47v.33c-.21 10.4-3.06 19.92-8.26 27.54a52 52 0 01-43 22.91 47.55 47.55 0 01-20.45-4.53c-20.26-9.54-32-31.51-29.31-52.58 1.52.65 3.28 1.24 5.11 1.84 3.69 1.21 7.51 2.47 8.79 4.21 1.62 2.23 1.36 4.52 1.07 6.95-.37 3.25-.8 6.93 3.53 10.75 2.42 2.13 3.25 7.38 3.92 11.59.25 1.59.49 3.09.79 4.28.76 3 4.34 6.17 7.49 8.92l.33.29a1.51 1.51 0 001 .39 1.67 1.67 0 00.75-.19 1.56 1.56 0 00.79-1.59c-.77-5.16.9-9.64 5.4-14.53.73-.79 1.87-1.77 3.19-2.91 4-3.43 9.45-8.12 8.84-12.4-.31-2.09-2.05-3.86-5.17-5.27a52.26 52.26 0 01-6.28-3.73c-4.85-3.15-10.34-6.73-14.4-6.13-6.07.9-7.93-1-9.91-3-1.6-1.61-3.27-3.29-7.19-3.23l-.1-.11c.24-2.24.81-3.62 1.69-4.08 1.16-.61 2.9.33 4.57 1.25s3.05 1.66 4.23 1.3c2.94-.9 4.94-3.51 7.06-6.29s4.52-5.92 8.1-7.12c3.84-1.28 4.87-4 4.55-6-.37-2.44-2.75-5.1-7.09-5.19-6.79-.13-7-.85-8.1-4.33-.12-.39-.26-.83-.42-1.3a50 50 0 0127.78-8.59 47.35 47.35 0 017 .52 51.09 51.09 0 0119.53 7.2c-3.74.76-5.78 1.86-6.17 3.36-.52 2 2 4.09 3.87 5.59a9.93 9.93 0 011.61 1.46c-.13.82-2.58 1.67-5 2.49-5.06 1.74-12 4.13-10.09 9.91a.79.79 0 00.6.54.8.8 0 00.76-.23c2-2.17 15.76-1.49 17.68-1a4.85 4.85 0 004.43-.92 3.48 3.48 0 012.41-.85c.7.08 1 1 1.06 1.62.32 1.94-.32 4.36-1 4.69-3.82 1.8-7 .17-10.1-1.41-2.23-1.13-4.33-2.2-6.62-2.07-3.79.21-9.69 3.15-12.62 7.53a8 8 0 00-1.25 7.28 6.37 6.37 0 01.15 2.49c-.09 1.61-.2 3.44 1.79 4.54s4.43 1.07 6.8 1c3.31 0 6.44-.09 8.34 2.75.46.7.74 3.19 1.06 6.08.71 6.43 1.69 15.24 5.86 17.55a4.48 4.48 0 002.22.57 7.16 7.16 0 003-.79c5.43-2.62 5.55-8.35 5.65-13.4.07-3.36.14-6.54 1.89-8 4.24-3.42 5.8-5.23 5.77-6.7 0-1.16-1-1.91-2.3-2.86a13 13 0 01-5.55-7.42 61.46 61.46 0 006.33 5.74 7.37 7.37 0 003.39 1.29c.15.75.18 1.37.2 2z" transform="translate(-55.57 -39.62)"/><path class="cls-1" d="M300.55 96.42c1.19-1.43.95-2.42.54-3-1.85-2.62-10.9-1.57-16.77-.76-1.3.18-3 .19-3.77-.42s-3.47-.17-5 .16c-2.07.45-4.4.71-6.09 3.23a1.52 1.52 0 000 1.74 2.25 2.25 0 001.75.92h.24c1.72 0 4.21-1.51 5.92-2.62 1.17-.76 2.21-.62 2.19.94a13.06 13.06 0 00.87 2.92c1.1 2.42 2.63 4.93 4.55 5.17h.23c3.17.02 13.79-6.41 15.34-8.28zM407.35 82.75a43.34 43.34 0 00-32.78 15V88a5 5 0 00-5.22-5.22 5.15 5.15 0 00-5.42 5.22v95.5a5.45 5.45 0 005 5.42h.41a5.27 5.27 0 005.22-5.42v-57.3a32.68 32.68 0 1165.36 0v57.3a5.14 5.14 0 005.21 5.42 5.49 5.49 0 005.42-5.42v-57.3a43.36 43.36 0 00-43.2-43.45zM563.7 39.62c-3 0-5.21 3.08-5.21 5.83v58a50.25 50.25 0 00-40.59-20.7c-28.47 0-51.63 23.72-51.63 52.87 0 29.37 23.16 53.27 51.63 53.27a50.38 50.38 0 0040.59-20.54v15.12a5.32 5.32 0 1010.64 0v-138c0-2.82-2.08-5.85-5.43-5.85zm-5.21 94.2v1.8c0 23.51-18.21 42.64-40.59 42.64-22.6 0-41-19.13-41-42.64 0-23.29 18.39-42.23 41-42.23 21.6 0 39.8 18.13 40.59 40.43zM599.76 39.62a5.36 5.36 0 00-5.42 5.38v138.47a5.36 5.36 0 005.42 5.42 5.26 5.26 0 005.22-5.42V45a5.26 5.26 0 00-5.22-5.38zM710.69 82.75h-.41a5.18 5.18 0 00-5.16 5.42v58.62a32.17 32.17 0 01-32 31.06 32.52 32.52 0 01-32.58-32.38v-57.3a5.32 5.32 0 10-10.63 0v57.3a43.15 43.15 0 0043.21 43 42.09 42.09 0 0032-14.45v11.36a39.41 39.41 0 01-39.36 39.36 37.54 37.54 0 01-17.33-4.27l-.13-.06a5.27 5.27 0 00-6.61 2.67 5.59 5.59 0 00-.26 4.42 4.81 4.81 0 002.61 2.67 48.26 48.26 0 0021.72 5.2 50 50 0 0050-50v-97.2a5.39 5.39 0 00-5.07-5.42z" transform="translate(-55.57 -39.62)"/></svg>